<?xml version="1.0" encoding="UTF-8" standalone="no"?>
<svg width="269px" height="26px" viewBox="0 0 269 26" version="1.1" xmlns="http://www.w3.org/2000/svg" xmlns:xlink="http://www.w3.org/1999/xlink">
    <!-- Generator: Sketch 41.2 (35397) - http://www.bohemiancoding.com/sketch -->
    <title>Group 3</title>
    <desc>Created with Sketch.</desc>
    <defs></defs>
    <g id="Page-1" stroke="none" stroke-width="1" fill="none" fill-rule="evenodd">
        <g id="Wireframe" transform="translate(-490.000000, -2305.000000)" fill="#F07D00">
            <g id="Group-3" transform="translate(490.000000, 2305.000000)">
                <path d="M107.709882,14.0525001 C107.709882,16.9507921 105.727282,18.8073791 102.904598,18.8073791 C100.081913,18.8073791 98.0573095,16.9507921 98.0573095,14.0525001 L98.0573095,1.52683834 L95.293431,1.52683834 L95.293431,14.0440993 C95.293431,18.4041385 98.3429382,21.2772279 102.82899,21.2772279 C107.306641,21.2772279 110.406553,18.4041385 110.406553,14.0356984 L110.406553,1.52683834 L107.709882,1.52683834 L107.709882,14.0525001 Z M114.354937,17.664864 L113.086409,19.3954384 C114.766579,20.6303628 116.194722,21.2772279 118.261331,21.2772279 C121.176424,21.2772279 123.587467,19.9918984 123.587467,17.1356107 C123.587467,12.145508 116.228326,13.8928841 116.228326,10.944187 C116.228326,9.70926261 117.513655,9.25561691 118.723377,9.25561691 C119.84909,9.25561691 121.151222,9.65045669 122.083716,10.2721193 L123.167425,8.48273905 C121.856893,7.51664173 120.252331,7.02939265 118.588964,7.02939265 C115.841887,7.02939265 113.607262,8.34832551 113.607262,11.1290056 C113.607262,16.1527117 120.924399,14.279323 120.924399,17.2616234 C120.924399,18.597358 119.454251,19.0089994 118.15212,19.0089994 C116.681971,19.0089994 115.514254,18.488147 114.354937,17.664864 Z M137.978108,19.3366324 L136.743183,17.6396615 C135.659474,18.4713453 134.180925,18.975396 132.761182,18.975396 C130.324937,18.975396 128.619565,17.4884463 128.37594,14.9933949 L138.801391,14.9933949 C138.834994,14.7581712 138.868597,14.3129264 138.868597,13.8676815 C138.868597,10.0200939 136.373546,7.02939265 132.44195,7.02939265 C128.644767,7.02939265 125.654066,9.82687446 125.654066,14.2457196 C125.654066,18.7821766 128.795983,21.2772279 132.635169,21.2772279 C134.701778,21.2772279 136.659175,20.5547551 137.978108,19.3366324 Z M128.417945,13.019196 C128.737177,10.8181743 130.308135,9.33122453 132.467153,9.33122453 C134.785786,9.33122453 136.062715,11.0449972 136.21393,13.019196 L128.417945,13.019196 Z M141.708072,21 L144.379541,21 L144.379541,14.7749729 C144.379541,11.9438877 145.009605,9.49924145 147.857492,9.49924145 C148.386745,9.49924145 148.882395,9.58324992 149.403247,9.74286599 L149.814889,7.26461634 C149.243631,7.11340111 148.613568,7.02939265 147.991905,7.02939265 C146.135318,7.02939265 145.001204,7.77706797 144.211524,9.44883638 L144.194723,9.44043553 L143.934296,7.30662058 L141.708072,7.30662058 L141.708072,21 Z M158.904592,21 L161.618066,21 L161.618066,13.4896434 L165.297636,13.4896434 L169.666076,21 L172.942406,21 L168.179127,13.1620104 C170.79179,12.36393 172.362748,10.2049125 172.362748,7.4746375 C172.362748,4.07229476 169.926503,1.52683834 165.83529,1.52683834 L158.904592,1.52683834 L158.904592,21 Z M161.618066,11.053398 L161.618066,3.95468291 L165.364843,3.95468291 C167.868295,3.95468291 169.59887,5.15600393 169.59887,7.52504258 C169.59887,9.78487023 168.019511,11.053398 165.364843,11.053398 L161.618066,11.053398 Z M186.618972,19.3366324 L185.384047,17.6396615 C184.300338,18.4713453 182.821789,18.975396 181.402046,18.975396 C178.965801,18.975396 177.260429,17.4884463 177.016804,14.9933949 L187.442255,14.9933949 C187.475858,14.7581712 187.509461,14.3129264 187.509461,13.8676815 C187.509461,10.0200939 185.01441,7.02939265 181.082814,7.02939265 C177.285632,7.02939265 174.29493,9.82687446 174.29493,14.2457196 C174.29493,18.7821766 177.436847,21.2772279 181.276034,21.2772279 C183.342642,21.2772279 185.300039,20.5547551 186.618972,19.3366324 Z M177.058809,13.019196 C177.378041,10.8181743 178.948999,9.33122453 181.108017,9.33122453 C183.42665,9.33122453 184.703579,11.0449972 184.854794,13.019196 L177.058809,13.019196 Z M190.516953,17.664864 L189.248425,19.3954384 C190.928595,20.6303628 192.356739,21.2772279 194.423347,21.2772279 C197.33844,21.2772279 199.749483,19.9918984 199.749483,17.1356107 C199.749483,12.145508 192.390342,13.8928841 192.390342,10.944187 C192.390342,9.70926261 193.675671,9.25561691 194.885393,9.25561691 C196.011107,9.25561691 197.313238,9.65045669 198.245732,10.2721193 L199.329441,8.48273905 C198.018909,7.51664173 196.414347,7.02939265 194.75098,7.02939265 C192.003903,7.02939265 189.769278,8.34832551 189.769278,11.1290056 C189.769278,16.1527117 197.086415,14.279323 197.086415,17.2616234 C197.086415,18.597358 195.616267,19.0089994 194.314136,19.0089994 C192.843988,19.0089994 191.67627,18.488147 190.516953,17.664864 Z M214.140124,19.3366324 L212.905199,17.6396615 C211.82149,18.4713453 210.342941,18.975396 208.923198,18.975396 C206.486953,18.975396 204.781581,17.4884463 204.537957,14.9933949 L214.963407,14.9933949 C214.99701,14.7581712 215.030614,14.3129264 215.030614,13.8676815 C215.030614,10.0200939 212.535562,7.02939265 208.603966,7.02939265 C204.806784,7.02939265 201.816082,9.82687446 201.816082,14.2457196 C201.816082,18.7821766 204.957999,21.2772279 208.797186,21.2772279 C210.863794,21.2772279 212.821191,20.5547551 214.140124,19.3366324 Z M204.579961,13.019196 C204.899193,10.8181743 206.470151,9.33122453 208.629169,9.33122453 C210.947802,9.33122453 212.224731,11.0449972 212.375946,13.019196 L204.579961,13.019196 Z M229.648075,19.3114299 C228.942404,18.9501935 228.740784,18.3957377 228.740784,17.3624336 L228.740784,11.7590691 C228.740784,8.60875175 226.71618,7.02939265 223.095415,7.02939265 C221.306035,7.02939265 219.264629,7.41583158 217.828084,8.46593736 L218.668169,10.3309252 C219.802283,9.71766346 221.280832,9.29762114 222.700575,9.29762114 C224.649571,9.29762114 226.102918,10.0873007 226.102918,12.1959131 L226.102918,13.019196 C225.195626,12.8343774 223.969103,12.6663605 222.784583,12.6663605 C218.869789,12.6663605 216.786379,14.497745 216.786379,17.1356107 C216.786379,19.8490841 219.004203,21.2772279 221.675672,21.2772279 C223.54066,21.2772279 225.355242,20.5799577 226.279336,19.1518138 L226.296137,19.1602147 C226.296137,20.6219619 227.833492,21.2772279 229.328843,21.2772279 L229.648075,19.3114299 Z M226.102918,15.0522008 L226.102918,16.026699 C226.102918,17.8412818 223.834689,19.0930079 221.961301,19.0930079 C220.66757,19.0930079 219.399042,18.4965478 219.399042,16.9759946 C219.399042,15.5730533 220.474351,14.7245678 223.003005,14.7245678 C224.128719,14.7245678 225.33004,14.8925848 226.102918,15.0522008 Z M232.739575,21 L235.411044,21 L235.411044,14.7749729 C235.411044,11.9438877 236.041108,9.49924145 238.888995,9.49924145 C239.418248,9.49924145 239.913898,9.58324992 240.434751,9.74286599 L240.846392,7.26461634 C240.275134,7.11340111 239.645071,7.02939265 239.023408,7.02939265 C237.166821,7.02939265 236.032707,7.77706797 235.243028,9.44883638 L235.226226,9.44043553 L234.9658,7.30662058 L232.739575,7.30662058 L232.739575,21 Z M252.11192,17.9168894 C251.187827,18.5301512 249.902497,18.9081893 248.759982,18.9081893 C246.189323,18.9081893 244.282331,16.9927963 244.282331,14.1533103 C244.282331,11.2970226 246.214526,9.39003045 248.810387,9.39003045 C249.944501,9.39003045 251.196228,9.75126684 252.11192,10.3309252 L253.271237,8.40713144 C252.002709,7.48303835 250.314139,7.02939265 248.717978,7.02939265 C244.803183,7.02939265 241.59406,9.76806853 241.59406,14.2373188 C241.59406,18.9081893 245.088812,21.2772279 248.667573,21.2772279 C250.389746,21.2772279 252.053114,20.7311729 253.430853,19.7230714 L252.11192,17.9168894 Z M268.434754,21 L268.434754,12.691563 C268.434754,9.32282368 266.544564,7.02939265 263.217829,7.02939265 C261.411647,7.02939265 259.689473,7.7098612 258.681372,9.07079829 L258.681372,0.627947789 L255.993101,1.1572011 L255.993101,21 L258.681372,21 L258.681372,13.1032045 C258.681372,10.9357862 260.369942,9.44043553 262.520558,9.44043553 C264.713179,9.44043553 265.746483,10.9945921 265.746483,13.1620104 L265.746483,21 L268.434754,21 Z" id="User-Research"></path>
                <g id="Group-2" transform="translate(0.000000, 1.000000)">
                    <path d="M87.244418,5.69418485 C85.8970167,5.68538508 84.826778,6.69442544 84.8177401,8.0033913 C84.8094553,9.31162386 85.8623714,10.3639297 87.1916968,10.3719962 C88.5232817,10.3815293 89.5761978,9.35488939 89.5837294,8.04592353 C89.6018053,6.73695766 88.557927,5.70225131 87.244418,5.69418485 L87.244418,5.69418485 Z M87.2097727,9.88507557 C86.1741792,9.88507557 85.400685,9.04689743 85.4089698,8.01145776 C85.4187608,6.98481786 86.2095777,6.1561728 87.2097727,6.16423926 C88.2453661,6.17303903 89.0015376,7.01928363 88.9924997,8.05398998 C88.984215,9.08062988 88.2190056,9.91074157 87.2097727,9.88507557 L87.2097727,9.88507557 Z" id="Fill-7"></path>
                    <path d="M87.7490344,8.10605529 L87.7490344,8.07158952 C88.0186653,7.98579176 88.235575,7.80612978 88.235575,7.52453712 C88.235575,7.29354315 88.140677,7.12194762 88.0013426,7.01928363 C87.8446856,6.90855318 87.6450985,6.83155519 87.2097727,6.83155519 C86.8271679,6.83155519 86.5228918,6.86602096 86.3150199,6.89095364 L86.2969441,9.22655941 L86.8362059,9.23535918 L86.8444906,8.3025835 L87.0967988,8.31138327 C87.3927903,8.31138327 87.5321247,8.43091349 87.5750547,8.67070723 C87.6450985,8.95303321 87.6797438,9.15762787 87.7490344,9.23535918 L88.3236946,9.24342563 C88.2792583,9.15762787 88.2190056,9.0300312 88.1489618,8.67070723 C88.0879559,8.36271527 87.9749821,8.17425351 87.7490344,8.10605529 L87.7490344,8.10605529 Z M87.1148746,7.92639331 L86.8618133,7.92639331 L86.8618133,7.25027761 C86.9228191,7.24221115 87.0184703,7.22461161 87.1578047,7.22461161 C87.4967262,7.23341138 87.6533832,7.37054114 87.6533832,7.58393557 C87.6533832,7.83252909 87.4093598,7.92639331 87.1148746,7.92639331 L87.1148746,7.92639331 Z" id="Fill-8"></path>
                    <path d="M15.1693729,13.0515263 C14.0125209,13.230455 13.5079045,14.6340184 12.6816892,15.377599 C11.8035059,16.2590427 10.0893163,16.2590427 9.02886861,15.711257 C6.96747277,14.548954 6.91550481,12.2045484 6.94111221,10.0317384 C6.94111221,8.14198769 7.7763654,6.17450566 9.43708073,5.32752775 C11.6988168,4.39548538 13.1863056,6.5169634 14.5954659,7.83399572 C16.003873,8.32164967 17.8656817,8.44924634 19.1437923,7.46587199 C19.5527576,6.64456007 19.2484814,5.60985372 18.8651235,4.88313933 C18.2392485,3.5140417 16.8044809,1.96674871 15.4472886,1.444629 C12.6033606,-0.000733314211 8.55061273,-0.000733314211 5.688609,1.444629 C3.52327723,2.58199934 1.75787282,4.88313933 1.20957316,7.18354601 C0.174732859,11.2211741 0.826968447,15.685591 3.87123663,18.5601827 C6.76713251,21.1942473 11.6468489,21.3739093 15.1693729,20.005545 C17.3874258,18.943706 19.3441326,16.5919673 19.4744291,14.0613 C18.8651235,12.3585444 16.6305012,13.127791 15.1693729,13.0515263" id="Fill-9"></path>
                    <path d="M34.0601039,7.00388403 C32.2510163,5.03713532 29.3807278,5.40525905 27.1717128,6.17450566 C25.058349,5.60985372 26.2844916,2.73599532 25.3543404,1.23930102 C24.1974884,0.204594665 21.6051155,0.101930675 20.6742112,1.49596099 C20.1786326,6.02050967 20.526592,10.8530503 20.4045803,15.5323283 C20.6568885,16.9344251 20.1010573,18.7647774 21.3091241,19.7224857 C22.5360199,20.2614717 24.1274446,20.159541 25.3370178,19.4922251 C26.1368725,17.2944824 25.6578635,14.5218213 25.9892534,12.093818 L26.8410761,10.5201257 C27.3720531,10.2114004 28.0242886,9.92907442 28.6765242,10.2114004 C30.7379201,11.3238381 29.9373122,14.0349007 30.1112919,16.1307127 C30.1376525,17.4741443 29.9373122,18.9187733 31.0421963,19.7994837 C32.0770366,20.0818097 33.102839,20.133875 34.2167609,19.9278137 C34.8946039,19.7224857 35.3992204,18.9708386 35.4692641,18.2778567 C35.3208918,14.44629 36.3564853,9.98040642 34.0601039,7.00388403" id="Fill-10"></path>
                    <path d="M39.365355,7.00388403 C36.9303924,8.79243739 36.1998283,11.683162 36.5997556,14.6853504 C37.0516509,17.0370891 38.8870991,19.4152271 41.2098411,19.979879 C44.5493476,20.7835914 48.7233541,20.6545281 50.8367179,17.576075 C51.1153866,17.0121564 51.046096,16.2077107 50.3848225,15.8483867 C48.628456,14.9163444 46.9142664,16.1050467 45.3838476,16.7466966 C44.4273358,17.0884211 43.3224518,16.8229613 42.7402599,15.9503174 C42.4096232,15.326267 42.7402599,14.548954 43.366135,14.3428927 C46.2371766,13.5472467 49.306299,15.7963214 51.7246922,13.7525747 C52.5765149,11.8877567 51.6463637,9.98040642 50.7418198,8.47564565 C48.0711185,5.01146932 42.6355709,4.60081336 39.365355,7.00388403 L39.365355,7.00388403 Z M45.7589207,10.8017183 C45.1315394,11.2981721 44.0447311,11.606164 43.2968443,11.0327123 C42.7138994,10.8530503 42.7402599,10.1344024 42.939847,9.74134598 C43.5664752,8.94570006 45.1315394,8.94570006 45.7061996,9.66434799 C45.8101355,9.98040642 46.0624437,10.4423944 45.7589207,10.8017183 L45.7589207,10.8017183 Z" id="Fill-11"></path>
                    <path d="M67.519187,6.41429941 C66.1619947,5.48152373 64.2745785,6.02050967 62.9181394,6.4399654 C60.5961506,5.63551971 57.151955,4.85747334 55.1425272,6.92761935 C53.4290907,8.52697765 52.8981137,10.7511197 53.0291634,13.1798563 C53.0547708,14.7110164 53.5593872,16.157112 54.5166521,17.319415 C55.0378381,17.961065 55.6900737,18.5601827 56.4733589,18.9708386 C58.0120625,20.0818097 59.9695224,19.2604978 61.6573514,19.0471033 C62.2568659,19.1505006 62.735875,19.877215 62.413523,20.5269314 C62.0309182,21.398842 61.1000139,21.8439637 60.2225838,21.6386357 C58.7170192,20.5525974 56.3769546,20.5269314 54.7169924,21.3482433 C54.5859428,21.8439637 54.3856025,22.3059517 54.7169924,22.8273381 C54.9165795,23.0070001 55.0905592,23.1617294 55.2645389,23.3413913 C57.9872082,25.4885354 62.0572788,25.1284781 65.1007938,24.1964357 C66.5355615,23.52032 67.5711549,22.0236257 67.8498237,20.5269314 C68.2233905,16.3353074 68.2753585,11.785826 68.0757714,7.46587199 L67.519187,6.41429941 L67.519187,6.41429941 Z M61.4826186,15.043941 C60.830383,15.4039983 60.1261795,15.2500023 59.464906,14.9163444 C58.8653915,14.2394954 58.3871356,13.4702487 58.4903184,12.4098764 C58.4134962,11.529166 58.787063,10.8273843 59.3692548,10.2114004 C60.0734583,9.63868199 61.3003541,9.561684 61.9616276,10.3140644 C62.5618953,10.9300483 62.735875,11.734494 62.8134503,12.5895384 C62.735875,13.5472467 62.309587,14.548954 61.4826186,15.043941 L61.4826186,15.043941 Z" id="Fill-12"></path>
                    <path d="M83.617958,6.41429941 C82.2607657,5.48152373 80.3741027,6.02050967 79.0169104,6.4399654 C76.7032063,5.63551971 73.250726,4.85747334 71.2420513,6.92761935 C69.5278617,8.52697765 68.9968847,10.7511197 69.1279343,13.1798563 C69.1542949,14.7110164 69.6589114,16.157112 70.6154231,17.319415 C71.1373622,17.961065 71.7895978,18.5601827 72.5721299,18.9708386 C74.1123398,20.0818097 76.0690466,19.2604978 77.7553693,19.0471033 C78.3563901,19.1505006 78.8346459,19.877215 78.5122939,20.5269314 C78.1296892,21.398842 77.199538,21.8439637 76.3198485,21.6386357 C74.8157902,20.5525974 72.4757256,20.5269314 70.8157634,21.3482433 C70.6847137,21.8439637 70.4851266,22.3059517 70.8157634,22.8273381 C71.0153505,23.0070001 71.1893302,23.1617294 71.3633099,23.3413913 C74.0859792,25.4885354 78.156803,25.1284781 81.2010711,24.1964357 C82.6350856,23.52032 83.6699259,22.0236257 83.9485947,20.5269314 C84.3221615,16.3353074 84.3748826,11.785826 84.1745424,7.46587199 L83.617958,6.41429941 L83.617958,6.41429941 Z M77.5813896,15.043941 C76.929154,15.4039983 76.2249504,15.2500023 75.5644301,14.9163444 C74.9641625,14.2394954 74.4859066,13.4702487 74.5898425,12.4098764 C74.5122672,11.529166 74.885834,10.8273843 75.4687789,10.2114004 C76.1722293,9.63868199 77.4074099,9.561684 78.0596455,10.3140644 C78.6606662,10.9300483 78.8346459,11.734494 78.9129745,12.5895384 C78.8346459,13.5472467 78.4076049,14.548954 77.5813896,15.043941 L77.5813896,15.043941 Z" id="Fill-13"></path>
                </g>
            </g>
        </g>
    </g>
</svg>